<!--
  - Copyright (c) 2026. Bernard Bou
  -->

<svg xmlns="http://www.w3.org/2000/svg" width="500" height="500" version="1.0"><desc>Picture of a blue sphere (circle with 3D highlighting)</desc><path d="M250 11.652A238.347 238.347 0 0 0 11.652 250 238.347 238.347 0 0 0 250 488.348 238.347 238.347 0 0 0 488.348 250 238.347 238.347 0 0 0 250 11.652zm79.85 39.694a29.16 29.16 0 0 1 21.701 9.629c10.892 12.027 10.016 30.647-1.955 41.59a29.111 29.111 0 0 1-15.508 7.359c1.204 68.199 11.656 105.792 27.012 128.715 7.984 11.92 17.39 20.14 27.884 26.902.38-.387.67-.83 1.075-1.2 11.971-10.941 30.506-10.062 41.398 1.966 10.892 12.027 10.017 30.647-1.955 41.59-11.972 10.942-30.507 10.062-41.398-1.965-8.333-9.2-9.724-22.236-4.584-32.764-11.17-7.262-21.475-16.288-30.202-29.314-16.888-25.211-27.364-64.89-28.548-134.188-22.737 49.597-42.557 98.009-77.89 154.236.503.482 1.064.866 1.538 1.389 10.892 12.027 10.017 30.648-1.955 41.59-6.597 6.03-15.171 8.34-23.377 7.303-7.731 35.36-9.591 61.005-7.547 79.707.099.903.22 1.765.336 2.636 11.981-9.86 29.634-8.769 40.178 2.873 10.892 12.028 10.016 30.646-1.955 41.588-11.972 10.942-30.507 10.065-41.399-1.963-8.32-9.187-9.722-22.2-4.61-32.72a107.612 107.612 0 0 1-1.862-11.397c-2.221-20.316-.177-47.022 7.816-83.308-.83-.401-1.603-.935-2.398-1.418-28.148 31.438-57.787 50.189-82.862 60.064-1.566 4.372-4.06 8.472-7.719 11.817-11.971 10.942-30.504 10.062-41.396-1.965-10.892-12.028-10.017-30.648 1.955-41.59 11.972-10.942 30.507-10.062 41.398 1.965 4.828 5.33 7.21 11.961 7.473 18.64 22.442-9.788 48.857-27.025 74.024-54.94-10.235-12.039-9.238-30.117 2.502-40.847 9.034-8.257 21.796-9.763 32.2-4.846 34.535-55.085 53.949-102.593 76.59-152.005-.345-.191-.682-.398-1.02-.604-92.305 69.895-153.052 101.433-196.103 110.031a29.326 29.326 0 0 1-8.746 14.78c-11.971 10.942-30.506 10.064-41.398-1.963-10.892-12.027-10.017-30.648 1.955-41.59 11.972-10.942 30.507-10.062 41.398 1.965 4.417 4.876 6.8 10.84 7.391 16.933 40.248-8.901 98.954-38.98 188.23-106.35-10.077-12.039-9.048-29.986 2.635-40.665a29.124 29.124 0 0 1 19.698-7.666z" style="fill:#696969;stroke:#696969;stroke-width:.5;stroke-linecap:round;stroke-linejoin:round"/></svg>