<!--
  - Copyright (c) 2026. Bernard Bou
  -->

<svg xmlns="http://www.w3.org/2000/svg" xmlns:xlink="http://www.w3.org/1999/xlink" xml:space="preserve" width="64" height="64"><defs><linearGradient id="a" gradientTransform="matrix(0 0 0 0 -3260.066 -29357.349)"><stop offset="0" style="stop-color:#666;stop-opacity:1"/></linearGradient><linearGradient
	id="b" gradientTransform="matrix(0 0 0 0 -9336253800 -853471230000)"><stop offset="0" style="stop-color:#666;stop-opacity:1"/></linearGradient><linearGradient id="c" gradientTransform="matrix(0 0 0 0 1700.175 -33104.196)"><stop offset="0" style="stop-color:#666;stop-opacity:1"/></linearGradient></defs>
	<use xlink:href="#g5796" width="1250" height="1250" transform="matrix(.9964 0 0 .99792 -374.672 -829.388)" />
	<use xlink:href="#g5796" width="1250" height="1250" transform="matrix(.98862 0 0 .99792 -374.078 -808.825)" />
	<use xlink:href="#rect4442" width="1250" height="1250" transform="translate(-212.245 -453.964)" />
	<use xlink:href="#g5772" width="1250" height="1250" transform="matrix(.69291 0 0 .70953 -529.031 -753.806)" />
	<use xlink:href="#g5772" width="1250" height="1250" transform="matrix(.69583 0 0 .74192 -545.037 -759.22)" />
	<use xlink:href="#g5772" width="1250" height="1250" transform="matrix(.69583 0 0 .74192 -501.037 -761.72)" />
	<use xlink:href="#g5772" width="1250" height="1250" transform="matrix(.62898 0 0 1.16243 -426.278 -863.942)" />
	<use xlink:href="#rect10675" width="1250" height="1250" transform="translate(326.793 -735.128)" />
	<use xlink:href="#use5758" width="1250" height="1250" transform="translate(327.76 -718.406)" />
	<use xlink:href="#g6043" width="1250" height="1250" transform="translate(323.744 -794.484)" />
	<use xlink:href="#rect10675" width="1250" height="1250" transform="translate(368.776 -734.182)" />
	<use xlink:href="#rect10675" width="1250" height="1250" transform="translate(356.776 -722.182)" />
	<use xlink:href="#g6043" width="1250" height="1250" transform="translate(342.793 -800.526)" />
	<use xlink:href="#rect10675" width="1250" height="1250" transform="translate(387.825 -740.224)" />
	<use xlink:href="#rect10675" width="1250" height="1250" transform="translate(375.825 -728.224)" />
	<use xlink:href="#use5756-0-3" width="1250" height="1250" style="stroke:url(#a);stroke-opacity:1" transform="matrix(1.13774 0 0 1.13997 135.46 -730.575)" />
	<use xlink:href="#use5756-0-3" width="1250" height="1250" style="stroke:url(#a);stroke-opacity:1" transform="matrix(1.13774 0 0 1.13997 130.46 -723.346)" />
	<use xlink:href="#use5756-0-3" width="1250" height="1250" style="stroke:url(#a);stroke-opacity:1" transform="matrix(1.13774 0 0 1.13997 143.053 -719.696)" />
	<use xlink:href="#g5796" width="1250" height="1250" transform="matrix(.9964 0 0 .99792 -159.77 -957.859)" />
	<use xlink:href="#g5796" width="1250" height="1250" transform="matrix(.98862 0 0 .99792 -159.175 -937.296)" />
	<use xlink:href="#rect4442" width="1250" height="1250" transform="translate(2.658 -582.435)" />
	<use xlink:href="#g5772" width="1250" height="1250" transform="matrix(.69291 0 0 .70953 -314.128 -882.277)" />
	<use xlink:href="#g5772" width="1250" height="1250" transform="matrix(.69583 0 0 .74192 -330.134 -887.69)" />
	<use xlink:href="#g5772" width="1250" height="1250" transform="matrix(.69583 0 0 .74192 -286.134 -890.19)" />
	<use xlink:href="#g5772" width="1250" height="1250" transform="matrix(.62898 0 0 1.16243 -211.375 -992.413)" />
	<use xlink:href="#rect10675" width="1250" height="1250" transform="translate(541.696 -863.6)" />
	<use xlink:href="#use5758" width="1250" height="1250" transform="translate(542.662 -846.877)" />
	<use xlink:href="#g6043" width="1250" height="1250" transform="translate(538.647 -922.954)" />
	<use xlink:href="#rect10675" width="1250" height="1250" transform="translate(583.68 -862.653)" />
	<use xlink:href="#rect10675" width="1250" height="1250" transform="translate(571.68 -850.653)" />
	<use xlink:href="#g6043" width="1250" height="1250" transform="translate(557.696 -928.996)" />
	<use xlink:href="#rect10675" width="1250" height="1250" transform="translate(602.728 -868.695)" />
	<use xlink:href="#rect10675" width="1250" height="1250" transform="translate(590.728 -856.695)" />
	<use xlink:href="#use5756-0-3" width="1250" height="1250" style="stroke:url(#b);stroke-opacity:1" transform="matrix(1.13774 0 0 1.13997 350.363 -859.045)" />
	<use xlink:href="#use5756-0-3" width="1250" height="1250" style="stroke:url(#b);stroke-opacity:1" transform="matrix(1.13774 0 0 1.13997 345.363 -851.817)" />
	<use xlink:href="#use5756-0-3" width="1250" height="1250" style="stroke:url(#b);stroke-opacity:1" transform="matrix(1.13774 0 0 1.13997 357.956 -848.167)" />
	<path
		d="M6.46 57.386V7.028q0-2.389 1.695-4.1 1.695-1.71 4.084-1.71h23.5q.226 0 .388.032h.032q2.518.194 4.035 1.71l16.85 16.206q.71.774 1.066 1.614.129.322.161.42.032.064.145.322.113.258.146.42.161.742.161 1.356v34.088q0 2.389-1.695 4.1-1.694 1.71-4.083 1.71H12.239q-2.389 0-4.084-1.71-1.694-1.711-1.694-4.1zm5.779 0h40.706V26.622h-8.78q-4.81 0-8.216-3.405Q32.543 19.81 32.543 15V7.028H12.24v50.358zM38.386 15q0 2.39 1.695 4.084 1.695 1.695 4.083 1.695h7.812L38.386 7.932v7.07z" />
	<use xlink:href="#g5796" width="1250" height="1250" transform="matrix(.9964 0 0 .99792 6.885 -1117.607)" />
	<use xlink:href="#g5796" width="1250" height="1250" transform="matrix(.98862 0 0 .99792 7.479 -1097.044)" />
	<use xlink:href="#rect4442" width="1250" height="1250" transform="translate(169.312 -742.183)" />
	<use xlink:href="#g5772" width="1250" height="1250" transform="matrix(.69291 0 0 .70953 -147.474 -1042.025)" />
	<use xlink:href="#g5772" width="1250" height="1250" transform="matrix(.69583 0 0 .74192 -163.48 -1047.44)" />
	<use xlink:href="#g5772" width="1250" height="1250" transform="matrix(.69583 0 0 .74192 -119.48 -1049.94)" />
	<use xlink:href="#g5772" width="1250" height="1250" transform="matrix(.62898 0 0 1.16243 -44.72 -1152.161)" />
	<use xlink:href="#rect10675" width="1250" height="1250" transform="translate(708.35 -1023.347)" />
	<use xlink:href="#use5758" width="1250" height="1250" transform="translate(709.316 -1006.625)" />
	<use xlink:href="#g6043" width="1250" height="1250" transform="translate(705.301 -1082.703)" />
	<use xlink:href="#rect10675" width="1250" height="1250" transform="translate(750.333 -1022.4)" />
	<use xlink:href="#rect10675" width="1250" height="1250" transform="translate(738.333 -1010.4)" />
	<use xlink:href="#g6043" width="1250" height="1250" transform="translate(724.35 -1088.745)" />
	<use xlink:href="#rect10675" width="1250" height="1250" transform="translate(769.382 -1028.443)" />
	<use xlink:href="#rect10675" width="1250" height="1250" transform="translate(757.382 -1016.443)" />
	<use xlink:href="#use5756-0-3" width="1250" height="1250" style="stroke:url(#c);stroke-opacity:1" transform="matrix(1.13774 0 0 1.13997 517.017 -1018.793)" />
	<use xlink:href="#use5756-0-3" width="1250" height="1250" style="stroke:url(#c);stroke-opacity:1" transform="matrix(1.13774 0 0 1.13997 512.017 -1011.565)" />
	<use xlink:href="#use5756-0-3" width="1250" height="1250" style="stroke:url(#c);stroke-opacity:1" transform="matrix(1.13774 0 0 1.13997 524.61 -1007.915)" />
	<path d="M19.433 34.337h26.639v-3.794H19.433m0 13.279h26.639v-3.794H19.433m0 13.278h26.639v-3.793H19.433v3.793z" style="fill:#050708;fill-opacity:1;stroke-width:.2;stroke-linejoin:round" /></svg>